<svg xmlns="http://www.w3.org/2000/svg" width="27" height="19" fill="none" viewBox="0 0 27 19"><path fill="#000" d="M2 0a2 2 0 0 0-2 2h2V0Zm23 0H2v2h23V0Zm2 2a2 2 0 0 0-2-2v2h2Zm-2 2a2 2 0 0 0 2-2h-2v2ZM2 4h23V2H2v2ZM0 2a2 2 0 0 0 2 2V2H0Zm2 5.385a2 2 0 0 0-2 2h2v-2Zm23 0H2v2h23v-2Zm2 2a2 2 0 0 0-2-2v2h2Zm-2 2a2 2 0 0 0 2-2h-2v2Zm-23 0h23v-2H2v2Zm-2-2a2 2 0 0 0 2 2v-2H0Zm2 7.384v-2a2 2 0 0 0-2 2h2Zm0 0H0a2 2 0 0 0 2 2v-2Zm23 0H2v2h23v-2Zm0 0v2a2 2 0 0 0 2-2h-2Zm0 0h2a2 2 0 0 0-2-2v2Zm-23 0h23v-2H2v2Z"/></svg>
